<svg width="3602" height="1445" viewBox="0 0 3602 1445" fill="none" xmlns="http://www.w3.org/2000/svg">
<rect width="3602" height="1445" fill="#1F1E2B"/>
<path d="M923.579 1025.73C734.377 1093.67 525.919 995.373 457.976 806.171C390.033 616.969 488.333 408.511 677.535 340.568" stroke="white" stroke-width="40" stroke-linecap="round"/>
<path d="M559.975 956.31C409.113 823.44 394.527 593.43 527.397 442.568C660.266 291.706 890.276 277.12 1041.14 409.989" stroke="#7C22D6" stroke-width="100" stroke-linecap="round"/>
<path d="M923.579 1025.73C734.377 1093.67 525.919 995.373 457.976 806.171C390.033 616.969 488.333 408.511 677.535 340.568" stroke="white" stroke-width="100" stroke-linecap="round"/>
<circle cx="800.557" cy="683.149" r="153" transform="rotate(-19.7533 800.557 683.149)" stroke="white" stroke-width="150"/>
<path d="M1411.99 703.881H1326.12C1325.67 698.584 1323.81 694.02 1320.54 690.189C1317.27 686.357 1313.05 683.428 1307.86 681.399C1302.79 679.258 1297.16 678.188 1290.96 678.188C1282.96 678.188 1276.09 679.652 1270.34 682.582C1264.59 685.512 1261.77 689.682 1261.89 695.091C1261.77 698.922 1263.41 702.472 1266.79 705.74C1270.28 709.008 1276.99 711.544 1286.9 713.347L1339.64 722.812C1366.24 727.658 1386.01 735.828 1398.97 747.322C1412.04 758.704 1418.64 773.973 1418.75 793.131C1418.64 811.612 1413.12 827.67 1402.18 841.305C1391.37 854.828 1376.55 865.308 1357.73 872.746C1339.02 880.071 1317.67 883.733 1293.66 883.733C1254 883.733 1222.95 875.619 1200.53 859.392C1178.21 843.165 1165.76 821.754 1163.17 795.159H1255.8C1257.04 803.385 1261.1 809.752 1267.97 814.26C1274.96 818.655 1283.75 820.852 1294.34 820.852C1302.91 820.852 1309.95 819.387 1315.47 816.457C1321.1 813.527 1323.98 809.358 1324.09 803.949C1323.98 798.991 1321.5 795.046 1316.65 792.116C1311.92 789.187 1304.48 786.82 1294.34 785.017L1248.36 776.903C1221.88 772.283 1202.05 763.493 1188.86 750.534C1175.68 737.575 1169.14 720.897 1169.26 700.5C1169.14 682.47 1173.88 667.2 1183.45 654.692C1193.15 642.071 1206.95 632.492 1224.87 625.956C1242.9 619.307 1264.25 615.983 1288.93 615.983C1326.46 615.983 1356.04 623.759 1377.67 639.31C1399.42 654.861 1410.86 676.384 1411.99 703.881ZM1454.5 879V619.364H1543.07V668.722H1545.78C1551.19 652.494 1560.43 639.648 1573.5 630.182C1586.57 620.716 1602.12 615.983 1620.15 615.983C1638.41 615.983 1654.13 620.829 1667.31 630.52C1680.5 640.098 1688.44 652.832 1691.15 668.722H1693.85C1698.25 652.832 1707.6 640.098 1721.91 630.52C1736.22 620.829 1753.01 615.983 1772.28 615.983C1797.19 615.983 1817.36 623.984 1832.8 639.986C1848.35 655.988 1856.13 677.286 1856.13 703.881V879H1762.82V727.545C1762.82 716.164 1759.95 707.261 1754.2 700.838C1748.45 694.302 1740.73 691.034 1731.04 691.034C1721.46 691.034 1713.86 694.302 1708.22 700.838C1702.7 707.261 1699.94 716.164 1699.94 727.545V879H1610.69V727.545C1610.69 716.164 1607.81 707.261 1602.07 700.838C1596.32 694.302 1588.6 691.034 1578.91 691.034C1572.49 691.034 1566.96 692.499 1562.34 695.429C1557.72 698.359 1554.12 702.585 1551.53 708.107C1549.05 713.516 1547.81 719.995 1547.81 727.545V879H1454.5ZM1902.15 879V619.364H1995.45V879H1902.15ZM1948.8 592.318C1936.18 592.318 1925.36 588.149 1916.34 579.81C1907.33 571.471 1902.82 561.441 1902.82 549.722C1902.82 538.002 1907.33 527.973 1916.34 519.634C1925.36 511.295 1936.18 507.125 1948.8 507.125C1961.53 507.125 1972.35 511.295 1981.25 519.634C1990.27 527.973 1994.78 538.002 1994.78 549.722C1994.78 561.441 1990.27 571.471 1981.25 579.81C1972.35 588.149 1961.53 592.318 1948.8 592.318ZM2168.08 883.733C2139.91 883.733 2115.79 878.155 2095.73 866.999C2075.67 855.73 2060.29 840.066 2049.59 820.007C2038.88 799.836 2033.53 776.453 2033.53 749.858C2033.53 723.263 2038.88 699.937 2049.59 679.878C2060.29 659.706 2075.67 644.043 2095.73 632.886C2115.79 621.617 2139.91 615.983 2168.08 615.983C2193.55 615.983 2215.58 620.603 2234.17 629.844C2252.88 638.972 2267.36 651.931 2277.61 668.722C2287.87 685.4 2293.05 705.008 2293.16 727.545H2206.62C2205.38 713.91 2201.43 703.543 2194.79 696.443C2188.25 689.231 2179.8 685.625 2169.43 685.625C2161.32 685.625 2154.22 687.991 2148.13 692.724C2142.05 697.345 2137.31 704.388 2133.93 713.854C2130.55 723.207 2128.86 734.983 2128.86 749.182C2128.86 763.381 2130.55 775.213 2133.93 784.679C2137.31 794.032 2142.05 801.075 2148.13 805.808C2154.22 810.429 2161.32 812.739 2169.43 812.739C2176.3 812.739 2182.39 811.161 2187.69 808.006C2192.98 804.738 2197.26 800.005 2200.53 793.807C2203.91 787.496 2205.94 779.833 2206.62 770.818H2293.16C2292.83 793.694 2287.59 813.64 2277.44 830.656C2267.3 847.56 2252.93 860.632 2234.34 869.872C2215.86 879.113 2193.77 883.733 2168.08 883.733ZM2519.12 532.818V879H2425.14V532.818H2519.12ZM2696.86 879H2563.66V532.818H2695.51C2731.12 532.818 2761.88 539.749 2787.8 553.609C2813.83 567.357 2833.89 587.191 2847.98 613.109C2862.17 638.915 2869.27 669.848 2869.27 705.909C2869.27 741.97 2862.23 772.959 2848.14 798.878C2834.06 824.684 2814.11 844.517 2788.31 858.378C2762.5 872.126 2732.02 879 2696.86 879ZM2657.64 799.216H2693.48C2710.61 799.216 2725.2 796.455 2737.26 790.933C2749.43 785.411 2758.67 775.889 2764.98 762.366C2771.4 748.844 2774.61 730.025 2774.61 705.909C2774.61 681.794 2771.35 662.974 2764.81 649.452C2758.39 635.929 2748.92 626.407 2736.41 620.885C2724.02 615.363 2708.8 612.602 2690.77 612.602H2657.64V799.216ZM2912.76 879V532.818H3162.25V608.545H3006.74V668.045H3149.41V743.773H3006.74V803.273H3161.58V879H2912.76Z" fill="white"/>
</svg>
